<svg version="1.1" id="Layer_1" xmlns="http://www.w3.org/2000/svg" xmlns:xlink="http://www.w3.org/1999/xlink" x="0px" y="0px"
	 width="100%" viewBox="0 0 500 500" enable-background="new 0 0 500 500" xml:space="preserve">
<path fill="#000000" opacity="1.000000" stroke="none" 
	d="
M234.000000,501.000000 
	C156.000015,501.000000 78.500038,501.000000 1.000041,501.000000 
	C1.000028,334.333405 1.000028,167.666779 1.000014,1.000131 
	C167.666565,1.000087 334.333130,1.000087 500.999756,1.000044 
	C500.999847,167.666519 500.999847,334.333038 500.999939,500.999786 
	C412.166656,501.000000 323.333344,501.000000 234.000000,501.000000 
M186.143967,223.149536 
	C185.903198,222.928879 185.627167,222.769119 185.016190,222.170288 
	C184.388626,221.731125 183.761063,221.291977 182.857819,220.366089 
	C182.406372,220.038193 181.954941,219.710281 181.211334,219.053299 
	C180.999023,218.845322 180.762070,218.670776 180.189392,218.146164 
	C179.940048,217.923065 179.655945,217.760773 179.065399,217.253479 
	C178.827652,217.020920 178.549713,216.856186 177.931885,216.004929 
	C177.613815,214.050064 177.558044,212.005646 176.926987,210.157654 
	C175.237213,205.209381 169.900345,202.942108 165.188538,204.963058 
	C160.542450,206.955811 157.644867,212.740936 160.353378,216.361038 
	C162.592026,219.353134 161.646088,221.495529 160.634369,224.070724 
	C153.093536,243.264771 145.449341,262.418854 138.035217,281.661621 
	C135.989426,286.971283 134.611755,292.538391 132.581635,298.288696 
	C132.362778,300.329010 132.143921,302.369324 131.925064,304.409637 
	C133.700531,303.258972 135.732422,302.369720 137.212463,300.917908 
	C155.341309,283.135071 173.378403,265.258728 191.481628,247.449661 
	C192.738419,246.213303 194.331223,245.318481 196.153580,244.950241 
	C207.095032,255.204468 218.123550,265.368927 228.884995,275.808746 
	C230.518127,277.393097 231.624130,280.219025 231.744461,282.534607 
	C232.116745,289.698059 234.934662,295.088135 241.566971,298.034637 
	C247.982224,300.884674 254.083130,299.855988 259.157013,295.113251 
	C264.358368,290.251343 265.655609,284.233765 263.479645,277.305664 
	C262.878967,275.393127 263.040192,272.798309 263.854553,270.960968 
	C267.425385,262.904358 271.364136,255.010818 275.856018,247.162872 
	C286.562927,253.496017 300.362579,254.604141 308.027069,266.137299 
	C308.027069,266.137299 307.985321,266.202545 307.684601,266.866974 
	C312.811127,273.377319 320.412903,274.982635 326.997162,270.945312 
	C333.512115,266.950500 335.648621,258.986816 332.450012,251.740936 
	C331.588531,249.789383 330.831757,247.209473 331.379364,245.307343 
	C337.430786,224.286636 343.749054,203.342728 350.754242,182.571808 
	C358.035431,185.594986 365.316650,188.618164 373.195251,191.889374 
	C370.945984,194.687973 369.179077,196.886398 367.015717,199.578156 
	C377.344818,200.263672 386.902374,200.897980 397.824921,201.622879 
	C396.123322,200.076370 395.539459,199.545746 394.738586,198.418808 
	C393.537537,197.234009 392.336456,196.049210 390.934113,194.414871 
	C390.736053,194.132126 390.469666,193.948456 389.904114,193.243851 
	C387.937408,191.174347 385.970673,189.104828 383.887756,186.698624 
	C383.887756,186.698624 383.620575,186.463089 383.312622,186.043259 
	C383.049866,185.817978 382.787140,185.592712 382.235626,184.977646 
	C382.052490,184.700638 381.820801,184.472992 381.262939,183.886032 
	C381.015717,183.667816 380.768524,183.449600 380.308441,182.936554 
	C380.149628,182.745514 379.962646,182.587875 379.385040,181.852264 
	C378.863434,180.556061 378.341797,179.259857 377.820160,177.963654 
	C377.356537,178.530396 376.892914,179.097122 376.429291,179.663864 
	C376.013824,182.169693 375.598328,184.675522 375.086823,187.760574 
	C370.899841,186.288727 367.334900,185.267349 363.968750,183.792313 
	C359.958130,182.034836 356.118011,179.888275 352.059570,177.120895 
	C352.512390,174.878738 352.829224,172.598770 353.440552,170.400711 
	C356.919312,157.892410 360.468353,145.403656 364.048889,132.185181 
	C364.124939,131.233337 364.201019,130.281494 364.965302,129.403137 
	C367.260956,130.360306 369.556580,131.317474 372.240723,132.436615 
	C371.847107,124.441162 371.453491,116.445564 371.059845,108.449959 
	C370.724884,108.432678 370.389893,108.415398 370.054932,108.398117 
	C369.526886,109.199677 368.998840,110.001236 368.263184,111.033974 
	C367.862701,111.530220 367.462219,112.026474 366.422333,112.773918 
	C366.258820,113.178047 366.095306,113.582176 365.995392,113.995781 
	C365.995392,113.995781 365.971222,113.936234 365.391449,114.000923 
	C365.255066,114.341919 365.118683,114.682915 365.020172,115.016968 
	C365.020172,115.016968 365.023712,114.978645 364.372772,115.118744 
	C364.165985,115.502411 363.959198,115.886078 363.641296,116.460365 
	C363.641296,116.460365 363.336487,116.777191 362.656799,117.068840 
	C362.385956,117.688194 362.115082,118.307556 361.934753,118.939873 
	C361.934753,118.939873 361.894836,118.857613 361.249969,118.846069 
	C361.143433,119.218445 361.036926,119.590820 360.995636,119.995728 
	C360.995636,119.995728 360.955536,119.934822 360.334900,119.903229 
	C360.215027,120.273621 360.095123,120.644020 360.012787,121.012642 
	C360.012787,121.012642 360.013855,120.975082 359.400146,120.983398 
	C359.272369,121.334862 359.144562,121.686317 358.998535,121.998856 
	C358.998535,121.998856 359.038818,122.013695 358.439819,122.016266 
	C358.312805,122.370743 358.185791,122.725220 358.093964,123.028130 
	C358.093964,123.028130 358.145966,123.062622 357.450104,123.106575 
	C356.415314,124.257401 355.380554,125.408218 354.089539,126.844009 
	C356.823029,127.028336 358.922455,127.169907 361.350464,127.333626 
	C361.044617,129.126862 360.827026,130.402817 360.171082,132.229462 
	C355.129120,145.454514 350.087158,158.679581 344.353546,171.553894 
	C341.690430,170.229568 339.027344,168.905243 335.963654,167.188629 
	C335.454742,166.958771 334.945831,166.728928 334.012238,166.141174 
	C333.512726,165.906769 333.013214,165.672348 332.070435,165.102448 
	C331.569885,164.870178 331.069305,164.637894 330.029144,163.978470 
	C327.311157,162.478897 325.091583,161.023407 324.131042,157.419266 
	C322.616455,151.736313 316.462158,149.013504 311.088867,150.684174 
	C304.967316,152.587509 301.897095,158.045731 303.378448,164.240189 
	C303.752411,165.804031 303.859222,167.431763 303.584869,169.483780 
	C300.757996,174.530945 297.881256,179.550934 295.113678,184.630417 
	C286.970612,199.575882 278.870850,214.544937 269.975403,229.662262 
	C256.673004,224.116745 243.346924,218.626297 230.104935,212.940079 
	C228.787430,212.374344 227.836502,210.711777 226.966385,209.392731 
	C224.311310,205.367813 220.643311,203.427292 215.935471,204.476501 
	C211.091003,205.556152 208.169235,208.633209 207.798309,213.857590 
	C207.698807,215.258911 207.422409,216.957596 206.564209,217.941437 
	C202.863190,222.184311 198.915771,226.212296 194.556671,230.032455 
	C194.229858,229.832336 193.903030,229.632233 193.148972,228.937225 
	C191.602631,227.720001 190.056305,226.502792 188.220749,224.942154 
	C188.022018,224.706055 187.783142,224.522049 187.198624,224.051056 
	C186.984192,223.825989 186.736465,223.646988 186.143967,223.149536 
M363.978638,335.327759 
	C363.978638,335.327759 363.935516,334.836700 364.098083,334.176056 
	C365.059662,332.512207 366.021271,330.848358 366.961823,329.220917 
	C360.719452,324.882294 354.769562,325.341736 349.634369,330.304840 
	C344.878723,334.901123 343.724060,342.673981 347.063416,347.611908 
	C349.981628,351.927094 355.605072,353.260803 361.370331,351.005157 
	C367.117340,348.756592 369.390717,343.636780 367.872192,336.132141 
	C366.613953,336.030640 365.308655,335.925385 363.978638,335.327759 
M318.009857,345.113770 
	C316.876099,346.914276 315.742371,348.714813 313.747681,351.882599 
	C319.433258,352.136780 323.615295,353.269928 327.130554,352.204041 
	C330.382996,351.217896 332.921661,347.877747 335.693756,345.639587 
	C335.850861,347.343811 336.054901,349.557037 336.293182,352.141479 
	C339.024750,351.719635 341.256744,351.374939 343.452454,351.035858 
	C343.452454,342.829590 343.452454,335.083710 343.452454,327.379578 
	C335.762726,326.651642 335.758484,326.651611 335.723297,333.723572 
	C335.709930,336.406982 335.721100,339.090515 335.721100,341.774017 
	C335.319702,341.997742 334.918274,342.221497 334.516876,342.445221 
	C332.924622,335.961273 327.489502,336.837982 322.777405,336.329773 
	C322.888794,335.825867 323.000183,335.321930 323.111572,334.818024 
	C325.958771,334.818024 328.805969,334.818024 331.736023,334.818024 
	C332.173340,333.629517 332.618683,332.741516 332.812683,331.801697 
	C333.008087,330.854889 332.953857,329.856567 333.085907,327.519409 
	C329.158142,327.519409 325.382751,326.988007 321.830811,327.651917 
	C317.239990,328.510010 314.479980,333.050964 315.197479,337.382874 
	C315.979401,342.104156 319.205994,343.466217 323.555603,343.271149 
	C324.592010,343.224670 325.647064,343.593323 326.693512,343.771027 
	C326.686096,344.243927 326.678680,344.716858 326.671265,345.189758 
	C324.069000,345.189758 321.466736,345.189758 318.009857,345.113770 
M102.841446,332.711670 
	C103.500008,328.449341 101.922928,326.658783 97.393845,326.927704 
	C94.686111,327.088470 93.604202,328.177490 92.845345,330.482605 
	C92.197632,332.450073 91.175713,334.294342 89.821823,337.296173 
	C88.376686,333.916870 87.729164,331.478119 86.365143,329.544922 
	C85.486092,328.299103 83.501518,327.030884 82.107979,327.129089 
	C79.718613,327.297424 76.388260,327.157990 76.379227,331.121674 
	C76.363708,337.928680 76.374924,344.735779 76.374924,352.075806 
	C79.299500,351.876495 81.521629,351.725037 83.863068,351.565460 
	C84.053238,349.049835 84.207695,347.006592 84.444160,343.878510 
	C86.486153,347.372009 88.000946,349.963593 89.784462,353.014893 
	C91.481537,350.191620 92.879677,347.865662 95.002373,344.334351 
	C95.002373,346.725983 94.935677,347.672607 95.019775,348.605652 
	C95.118126,349.696808 95.347931,350.776123 95.510788,351.798309 
	C102.794930,351.961395 102.807106,351.961487 102.850494,345.156433 
	C102.874931,341.324127 102.851395,337.491486 102.841446,332.711670 
M385.486511,351.492126 
	C388.212189,352.381622 391.457489,352.612427 391.710968,349.178802 
	C392.243011,341.972504 391.872467,334.699615 391.872467,327.423065 
	C388.862061,327.423065 386.619995,327.423065 384.215424,327.423065 
	C384.057190,330.276337 383.918091,332.785309 383.747498,335.861908 
	C379.660706,331.821594 378.374603,323.501129 370.197754,329.084503 
	C370.197754,336.550201 370.197754,344.146576 370.197754,351.987183 
	C372.780060,351.987183 375.146301,351.987183 378.086487,351.987183 
	C378.086487,348.568542 378.086487,345.582642 378.086487,341.390930 
	C380.929626,345.284149 382.972260,348.081207 385.486511,351.492126 
M209.614990,328.127655 
	C208.757584,328.912140 207.176422,329.677948 207.155594,330.484070 
	C206.964066,337.898346 207.042755,345.319672 207.042755,353.092133 
	C210.019257,352.728149 212.292801,352.450104 214.491104,352.181274 
	C214.822113,350.521881 215.092194,349.167877 215.587524,346.684662 
	C218.286514,349.550110 220.310699,351.699097 222.404724,353.922241 
	C224.143143,352.413361 225.625107,351.127106 227.209152,349.752197 
	C225.992935,348.048828 224.953094,346.592438 223.783386,344.954193 
	C224.447327,343.972321 225.173416,343.094696 225.687775,342.106812 
	C229.699112,334.402466 225.583145,327.510803 216.934738,327.514008 
	C214.784332,327.514801 212.634048,327.860474 209.614990,328.127655 
M279.507599,352.632812 
	C282.826599,352.352203 286.191620,352.304993 289.439636,351.664398 
	C290.576721,351.440125 292.257629,349.758087 292.260254,348.738098 
	C292.270782,344.668610 291.718048,340.597626 291.366058,336.435730 
	C288.430420,336.435730 285.486237,336.435730 282.542084,336.435730 
	C282.493195,336.031616 282.444305,335.627502 282.395416,335.223389 
	C285.634247,334.675201 288.873077,334.127014 292.096863,333.581390 
	C292.096863,331.343384 292.096863,329.387360 292.096863,326.909515 
	C286.250244,327.505920 280.722473,328.069794 274.994293,328.654144 
	C274.994293,331.590942 274.989838,333.914337 274.995270,336.237701 
	C275.005798,340.735291 275.174774,345.239502 274.981201,349.728149 
	C274.854919,352.655731 276.230316,353.132355 279.507599,352.632812 
M268.283508,348.904510 
	C268.898041,348.344757 269.594635,347.851868 270.113922,347.214508 
	C273.798859,342.691437 274.554626,334.222107 271.656830,330.359192 
	C268.633850,326.329437 261.377960,324.964996 255.535950,327.482574 
	C254.639008,327.869171 253.437088,328.963562 253.419312,329.754089 
	C253.256165,337.011108 253.323257,344.273285 253.323257,353.093323 
	C258.902191,351.604675 263.265350,350.440491 268.283508,348.904510 
M231.968170,339.270996 
	C230.905716,343.230225 229.843262,347.189423 228.656494,351.611908 
	C232.039902,351.328156 235.207016,354.057709 237.335754,349.558746 
	C237.731461,348.722443 241.931381,348.382050 242.778320,349.294861 
	C246.008820,352.776581 248.710327,350.069000 252.136536,349.503082 
	C249.364685,341.521149 246.711655,333.881409 244.115082,326.404266 
	C235.874405,325.908020 235.877808,325.909027 233.716690,333.236298 
	C233.200195,334.987457 232.652634,336.729462 231.968170,339.270996 
M153.070938,327.711823 
	C151.083252,327.892822 149.012955,327.797455 147.138611,328.357666 
	C146.000641,328.697784 144.354172,330.024292 144.323395,330.953644 
	C144.088165,338.053528 144.194351,345.164734 144.194351,352.911438 
	C148.736618,352.566742 152.652496,352.266174 156.568939,351.973206 
	C162.160889,351.554871 162.651443,350.790588 160.817627,344.852722 
	C158.122498,344.852722 155.326752,344.852722 152.531006,344.852722 
	C152.509247,344.556305 152.487503,344.259918 152.465759,343.963501 
	C155.273819,343.452332 158.081894,342.941162 160.639282,342.475616 
	C160.639282,340.186340 160.639282,338.291840 160.639282,336.152985 
	C158.713867,336.343536 157.237473,336.536194 155.754913,336.621826 
	C154.532562,336.692444 153.302887,336.636261 152.076447,336.636261 
	C152.080566,336.120300 152.084671,335.604340 152.088791,335.088379 
	C155.115631,334.611877 158.142487,334.135376 161.327225,333.634033 
	C161.327225,331.421143 161.327225,329.393433 161.327225,327.039734 
	C158.563812,327.232056 156.257980,327.392517 153.070938,327.711823 
M409.741150,329.667175 
	C408.419647,328.496796 407.122986,326.408386 405.770782,326.371765 
	C403.756195,326.317261 400.360229,327.235168 399.888092,328.567291 
	C397.267975,335.959290 395.354340,343.601685 393.198822,351.158356 
	C393.662720,351.680695 394.126587,352.203064 394.590485,352.725403 
	C396.979919,351.689270 399.301849,350.423950 401.781372,349.693634 
	C403.579102,349.164154 405.612488,349.078979 407.492676,349.269806 
	C410.211792,349.545807 412.887329,350.250702 415.581482,350.772644 
	C415.862030,350.226044 416.142578,349.679474 416.423126,349.132904 
	C414.276489,342.893982 412.129852,336.655060 409.741150,329.667175 
M63.255074,338.165161 
	C60.260403,337.329987 57.265728,336.494812 54.271053,335.659637 
	C54.306320,335.320435 54.341587,334.981232 54.376850,334.642029 
	C57.311100,334.642029 60.245346,334.642029 63.432293,334.642029 
	C63.888580,332.514313 64.286324,330.659576 64.858307,327.992371 
	C60.773270,327.704926 57.305649,326.973816 53.958855,327.341766 
	C49.170631,327.868195 45.915623,332.424866 46.346500,336.949188 
	C46.751766,341.204559 49.272530,343.042328 54.872604,343.277832 
	C55.832333,343.318207 56.778675,343.676758 57.731201,343.888336 
	C57.699200,344.268677 57.667194,344.649017 57.635193,345.029358 
	C54.332272,345.029358 51.029354,345.029358 47.579468,345.029358 
	C47.129620,347.287720 46.784370,349.020966 46.275848,351.573853 
	C50.008305,352.025177 53.437668,352.987671 56.773811,352.732300 
	C64.352295,352.152191 67.541504,345.448639 63.255074,338.165161 
M453.344452,338.089355 
	C450.334595,337.309662 447.324738,336.529938 444.314911,335.750244 
	C444.349030,335.393280 444.383148,335.036316 444.417236,334.679352 
	C447.358246,334.679352 450.299255,334.679352 453.493286,334.679352 
	C454.019165,332.673370 454.504272,330.822968 455.244598,327.998993 
	C450.367279,327.998993 446.005249,327.220398 442.088074,328.207306 
	C437.749451,329.300354 436.207733,333.299103 436.899780,337.785675 
	C437.572815,342.148804 440.681152,343.224396 444.534058,343.306671 
	C445.667603,343.330841 446.794464,343.667145 447.924408,343.860382 
	C447.888306,344.280304 447.852203,344.700195 447.816101,345.120117 
	C444.643097,345.120117 441.470093,345.120117 437.981964,345.120117 
	C437.510498,347.109161 437.067810,348.976654 436.423126,351.696442 
	C440.563080,352.084900 444.198273,353.030212 447.677032,352.626770 
	C454.956787,351.782593 457.766571,345.040283 453.344452,338.089355 
M119.895981,344.537964 
	C125.467606,339.116608 126.031593,330.051239 120.363129,328.142120 
	C115.932175,326.649811 110.670074,327.552673 105.779526,327.603943 
	C105.259773,327.609406 104.322800,329.036682 104.310577,329.815826 
	C104.196861,337.070984 104.243271,344.328705 104.243271,351.603760 
	C108.699409,352.080627 112.545326,352.812988 112.395790,347.429535 
	C114.919319,346.523132 117.095520,345.741486 119.895981,344.537964 
M205.329239,331.180664 
	C205.329239,329.580231 205.329239,327.979767 205.329239,326.099823 
	C197.923309,326.811157 191.174347,327.459381 184.310120,328.118713 
	C184.310120,330.662476 184.310120,332.884186 184.310120,335.336487 
	C186.538589,335.336487 188.454727,335.336487 190.884583,335.336487 
	C190.884583,340.963593 190.884583,346.359436 190.884583,351.706238 
	C198.656052,351.978363 198.662125,351.978394 198.690277,344.985504 
	C198.704666,341.408173 198.692795,337.830719 198.692795,335.466614 
	C201.625092,333.919586 203.449936,332.956818 205.329239,331.180664 
M425.492371,334.592834 
	C425.492371,332.162506 425.492371,329.732178 425.492371,327.301880 
	C425.048737,326.889740 424.605072,326.477600 424.161438,326.065460 
	C422.140289,327.279938 418.483124,328.361481 418.371857,329.731140 
	C417.786804,336.931091 418.097992,344.203918 418.097992,352.037750 
	C423.965820,351.480927 429.298767,350.974884 434.575195,350.474182 
	C434.575195,347.842743 434.575195,345.802216 434.575195,343.709900 
	C431.436981,343.709900 428.692413,343.709900 425.494019,343.709900 
	C425.494019,340.799805 425.494019,338.175873 425.492371,334.592834 
M125.845520,345.399994 
	C125.845520,347.475098 125.845520,349.550201 125.845520,352.058868 
	C130.138840,351.662567 133.570007,351.304871 137.008179,351.037445 
	C143.255966,350.551544 143.631699,350.043213 142.062225,343.686371 
	C139.216568,343.686371 136.335861,343.686371 132.919861,343.686371 
	C132.919861,337.983734 132.919861,332.605042 132.919861,327.284149 
	C126.007645,326.810425 125.995201,326.810272 125.916794,332.996002 
	C125.868515,336.804413 125.865311,340.613373 125.845520,345.399994 
M67.012177,345.372131 
	C67.012177,347.458313 67.012177,349.544525 67.012177,352.105225 
	C70.111061,351.715729 72.353661,351.433868 74.528595,351.160522 
	C74.528595,342.898712 74.528595,335.062775 74.528595,326.833832 
	C71.797249,327.120972 69.559914,327.356201 67.004181,327.624878 
	C67.004181,333.505768 67.004181,338.954193 67.012177,345.372131 
M70.706932,325.261444 
	C72.172089,324.028778 73.637245,322.796112 75.102402,321.563477 
	C74.185493,320.595062 73.142105,318.735626 72.378044,318.844055 
	C70.795601,319.068695 68.997795,320.063446 68.046669,321.316833 
	C67.668938,321.814575 69.303627,323.839508 70.706932,325.261444 
M336.344910,321.955597 
	C336.406281,325.932953 339.306152,325.635895 341.456238,324.646027 
	C342.598541,324.120117 342.848938,321.656860 343.501953,320.068115 
	C341.485687,320.066467 339.466949,320.015900 337.455902,320.117188 
	C337.161865,320.132019 336.904266,320.870392 336.344910,321.955597 
z"/>
<path fill="#1E91C3" opacity="1.000000" stroke="none" 
	d="
M195.058075,230.318512 
	C198.915771,226.212296 202.863190,222.184311 206.564209,217.941437 
	C207.422409,216.957596 207.698807,215.258911 207.798309,213.857590 
	C208.169235,208.633209 211.091003,205.556152 215.935471,204.476501 
	C220.643311,203.427292 224.311310,205.367813 226.966385,209.392731 
	C227.836502,210.711777 228.787430,212.374344 230.104935,212.940079 
	C243.346924,218.626297 256.673004,224.116745 270.443115,229.806030 
	C271.432251,230.283463 271.953735,230.617142 272.810974,231.136627 
	C274.098480,231.643997 275.050201,231.965576 276.244385,232.505096 
	C278.158722,233.217560 279.830627,233.712082 281.711670,234.506744 
	C290.722870,238.653259 299.321777,243.162674 308.445953,245.957108 
	C311.323578,246.838455 317.820587,244.025009 318.897430,241.373840 
	C327.251465,220.806335 334.683868,199.864502 342.591766,178.789810 
	C343.166687,177.360855 343.551300,176.180588 344.076965,174.698395 
	C344.284882,173.961777 344.351746,173.527054 344.540222,172.967926 
	C344.789612,172.530579 344.917419,172.217606 345.045227,171.904648 
	C350.087158,158.679581 355.129120,145.454514 360.613068,132.136505 
	C361.203369,132.165436 361.351685,132.287323 361.391052,132.761047 
	C359.919220,137.073898 358.556335,141.034897 357.037903,145.333893 
	C345.017578,178.235077 333.152771,210.798279 321.287964,243.361481 
	C321.783569,243.732361 322.279175,244.103226 322.774780,244.474106 
	C323.718933,243.491928 325.132690,242.672882 325.538757,241.503830 
	C336.705444,209.355209 347.769531,177.170959 359.010803,144.660217 
	C360.778381,140.521271 362.385925,136.714767 363.993500,132.908264 
	C360.468353,145.403656 356.919312,157.892410 353.440552,170.400711 
	C352.829224,172.598770 352.512390,174.878738 351.988586,177.808151 
	C351.276733,179.789627 350.635895,181.083832 349.995056,182.378052 
	C343.749054,203.342728 337.430786,224.286636 331.379364,245.307343 
	C330.831757,247.209473 331.588531,249.789383 332.450012,251.740936 
	C335.648621,258.986816 333.512115,266.950500 326.997162,270.945312 
	C320.412903,274.982635 312.811127,273.377319 308.149750,266.250000 
	C308.726044,264.825623 309.028320,263.990845 308.917450,263.215149 
	C308.178162,258.043488 309.519867,253.733215 314.106598,250.885208 
	C318.700958,248.032425 323.184052,248.858185 327.724213,251.892944 
	C328.229279,252.043732 328.502594,251.992889 328.775909,251.942047 
	C328.569916,251.578491 328.363892,251.214920 327.998718,250.529907 
	C322.918793,246.244843 317.393768,245.621918 312.749207,248.507126 
	C307.852661,251.548889 306.057190,256.826447 307.670166,263.248962 
	C307.906281,264.189209 307.877350,265.195984 307.971039,266.171997 
	C300.362579,254.604141 286.562927,253.496017 275.210571,246.937714 
	C272.857330,246.083694 271.149536,245.454834 269.266144,244.536972 
	C267.901917,243.863403 266.713287,243.478851 265.349792,242.847794 
	C264.628632,242.382019 264.082336,242.162766 263.331238,241.624710 
	C251.119690,235.671204 239.326096,229.483353 226.980972,224.726944 
	C223.099640,223.231522 217.137726,224.432755 213.216263,226.482040 
	C209.040054,228.664490 206.153320,233.314423 202.510651,237.017456 
	C202.188904,237.582901 202.060074,238.017899 201.581696,238.417740 
	C200.476242,239.171875 199.720352,239.961151 198.683990,240.894226 
	C197.524948,242.113632 196.646362,243.189240 195.767776,244.264832 
	C194.331223,245.318481 192.738419,246.213303 191.481628,247.449661 
	C173.378403,265.258728 155.341309,283.135071 137.212463,300.917908 
	C135.732422,302.369720 133.700531,303.258972 131.925064,304.409637 
	C132.143921,302.369324 132.362778,300.329010 133.170593,298.131409 
	C134.583984,297.889587 135.408417,297.805023 136.547546,297.696655 
	C145.937714,288.477936 155.013184,279.283051 164.356903,269.893433 
	C179.056961,254.923935 193.498978,240.159058 207.904648,225.358826 
	C209.330627,223.893814 211.949692,222.385315 208.428329,219.889114 
	C201.496628,227.284012 194.709641,234.591003 187.819809,241.799728 
	C186.835007,242.830124 185.352585,243.384918 184.004288,243.814819 
	C185.359406,241.441681 186.810684,239.413559 188.585876,237.258820 
	C189.745224,236.070724 190.580658,235.009232 191.684067,233.876495 
	C192.601746,232.976578 193.251450,232.147888 194.133331,231.201111 
	C194.596375,230.828186 194.827225,230.573349 195.058075,230.318512 
M275.656342,234.894623 
	C260.029541,228.182877 244.402725,221.471115 228.775909,214.759354 
	C228.386719,215.330444 227.997528,215.901520 227.608337,216.472610 
	C228.841980,217.497665 229.922165,218.865677 231.332153,219.496689 
	C255.014191,230.094971 278.758057,240.555252 302.426117,251.184402 
	C305.504211,252.566742 306.950653,252.033920 307.633667,248.610138 
	C297.120087,244.077286 286.749725,239.606155 275.656342,234.894623 
M323.559723,262.037750 
	C323.904114,260.183105 324.945587,258.110748 324.448364,256.518982 
	C323.399719,253.161835 320.465179,252.010147 317.232239,253.265732 
	C313.879028,254.567993 313.103271,257.490295 314.282532,260.692780 
	C315.508881,264.023163 318.848450,264.651398 323.559723,262.037750 
M221.488510,212.983612 
	C219.529709,212.507095 217.562912,211.721451 215.617783,211.771820 
	C215.132629,211.784378 214.032043,214.750778 214.460312,215.891891 
	C214.899353,217.061752 217.598434,218.648590 218.031815,218.327911 
	C219.586899,217.177094 220.601822,215.296356 221.488510,212.983612 
M215.590164,208.781296 
	C217.959656,208.608948 220.329163,208.436615 222.895325,208.249969 
	C216.571136,204.407684 210.514038,207.017899 209.581619,214.075333 
	C211.468521,212.287903 213.173691,210.672623 215.590164,208.781296 
M329.173981,253.447296 
	C329.379791,253.455978 329.585602,253.464661 329.791412,253.473343 
	C329.693451,253.353241 329.595520,253.233154 329.173981,253.447296 
z"/>
<path fill="#06BD65" opacity="1.000000" stroke="none" 
	d="
M263.536041,241.943497 
	C264.082336,242.162766 264.628632,242.382019 265.184204,243.192215 
	C261.053436,251.506516 256.913361,259.229889 252.773285,266.953278 
	C253.103516,267.455017 253.433746,267.956787 253.763992,268.458557 
	C255.124008,267.737091 257.092773,267.366821 257.744690,266.236816 
	C261.807617,259.194427 265.575836,251.982025 269.441742,244.825974 
	C271.149536,245.454834 272.857330,246.083694 274.867310,246.885345 
	C271.364136,255.010818 267.425385,262.904358 263.854553,270.960968 
	C263.040192,272.798309 262.878967,275.393127 263.479645,277.305664 
	C265.655609,284.233765 264.358368,290.251343 259.157013,295.113251 
	C254.083130,299.855988 247.982224,300.884674 241.566971,298.034637 
	C234.934662,295.088135 232.116745,289.698059 231.744461,282.534607 
	C231.624130,280.219025 230.518127,277.393097 228.884995,275.808746 
	C218.123550,265.368927 207.095032,255.204468 195.960678,244.607544 
	C196.646362,243.189240 197.524948,242.113632 198.991547,241.071960 
	C211.309418,251.803253 223.039246,262.500641 234.800568,273.226746 
	C236.114273,272.160339 237.079010,271.377197 238.315445,270.373505 
	C225.828003,259.417999 213.879623,248.935440 201.931244,238.452881 
	C202.060074,238.017899 202.188904,237.582901 202.799316,237.228271 
	C214.774994,246.932129 226.261185,256.565125 237.767960,266.173431 
	C241.293686,269.117462 249.227997,267.781097 251.467072,263.800110 
	C255.546738,256.546448 259.518982,249.232361 263.536041,241.943497 
M258.890106,277.825745 
	C259.131744,278.161438 259.373383,278.497131 259.615021,278.832825 
	C259.611633,278.060577 259.608215,277.288361 259.279846,275.911469 
	C253.451355,269.293427 246.177094,268.095367 239.912308,272.721680 
	C234.650925,276.607025 232.839188,283.583618 236.092438,288.810394 
	C236.011383,282.279755 237.463959,276.825439 243.692810,274.047272 
	C249.448364,271.480164 254.353851,273.335358 258.890106,277.825745 
M250.873611,288.794342 
	C254.303528,286.769775 255.482910,283.505951 253.490677,280.382751 
	C252.358231,278.607391 249.185104,277.171265 246.992508,277.252075 
	C243.374634,277.385376 241.503448,280.305634 242.064850,283.945007 
	C242.758423,288.441284 245.797546,289.864807 250.873611,288.794342 
z"/>
<path fill="#0BBB66" opacity="1.000000" stroke="none" 
	d="
M191.416092,233.947739 
	C190.580658,235.009232 189.745224,236.070724 188.264984,237.058228 
	C182.040009,231.862701 176.459839,226.741150 170.585373,221.349487 
	C169.562653,222.957932 168.826019,223.846344 168.377258,224.861969 
	C158.961472,246.171463 149.561874,267.488220 140.240891,288.839233 
	C139.813843,289.817413 140.151306,291.129364 140.036118,292.594055 
	C138.703979,294.508362 137.468430,296.114441 136.232880,297.720490 
	C135.408417,297.805023 134.583984,297.889587 133.343536,297.980774 
	C134.611755,292.538391 135.989426,286.971283 138.035217,281.661621 
	C145.449341,262.418854 153.093536,243.264771 160.634369,224.070724 
	C161.646088,221.495529 162.592026,219.353134 160.353378,216.361038 
	C157.644867,212.740936 160.542450,206.955811 165.188538,204.963058 
	C169.900345,202.942108 175.237213,205.209381 176.926987,210.157654 
	C177.558044,212.005646 177.613815,214.050064 177.968262,216.505463 
	C178.004639,217.005981 177.779846,217.254654 177.447266,217.293457 
	C177.394623,218.690811 177.213135,220.508606 178.031708,221.331146 
	C182.354324,225.674850 186.928894,229.767822 191.416092,233.947739 
M152.102463,254.627716 
	C156.709808,243.689255 161.317169,232.750809 165.924530,221.812363 
	C165.216797,221.530304 164.509064,221.248260 163.801331,220.966217 
	C158.597778,233.885468 153.394241,246.804718 148.190689,259.723969 
	C148.608917,259.921783 149.027145,260.119568 149.445374,260.317352 
	C150.252197,258.661591 151.059021,257.005829 152.102463,254.627716 
M171.898041,214.084778 
	C170.885956,212.681015 170.062943,211.026779 168.743210,210.030563 
	C168.361618,209.742508 165.957779,211.118073 165.568954,212.143494 
	C165.188370,213.147217 166.114685,215.743469 166.606735,215.780334 
	C168.237625,215.902496 169.931366,215.185776 171.898041,214.084778 
z"/>
<path fill="#08BC66" opacity="1.000000" stroke="none" 
	d="
M343.935913,175.000305 
	C343.551300,176.180588 343.166687,177.360855 342.240112,178.630646 
	C335.580383,176.145508 329.488373,173.507034 323.335205,171.019928 
	C319.597412,169.509094 311.864746,172.610504 310.123077,176.144150 
	C300.583527,195.498611 291.042816,214.852509 281.502502,234.206589 
	C279.830627,233.712082 278.158722,233.217560 276.451813,232.210648 
	C287.254913,211.614655 298.093048,191.531036 309.279968,170.801041 
	C307.537903,170.455261 306.261963,170.201996 304.887634,169.750641 
	C304.610260,169.305283 304.376801,169.131149 304.088806,169.030121 
	C303.859222,167.431763 303.752411,165.804031 303.378448,164.240189 
	C301.897095,158.045731 304.967316,152.587509 311.088867,150.684174 
	C316.462158,149.013504 322.616455,151.736313 324.131042,157.419266 
	C325.091583,161.023407 327.311157,162.478897 330.079590,164.422760 
	C329.990082,165.026566 329.850128,165.186111 329.363495,165.237915 
	C327.660736,164.634003 326.304657,164.137817 324.948578,163.641632 
	C324.678558,164.238297 324.408539,164.834976 324.138519,165.431641 
	C330.737640,168.621201 337.336792,171.810745 343.935913,175.000305 
M316.463440,164.679794 
	C318.811798,162.368637 318.998138,159.750107 316.256439,158.017303 
	C315.067017,157.265579 312.428925,157.750275 311.103027,158.643951 
	C310.228943,159.233124 309.802917,162.366287 310.440430,162.929550 
	C311.788025,164.120132 313.964264,164.372803 316.463440,164.679794 
M307.936218,157.593857 
	C311.498199,156.222687 315.060181,154.851517 318.279022,153.612427 
	C315.903748,151.570374 312.358002,151.882782 308.868317,153.990173 
	C305.080750,156.277435 304.117554,160.011246 305.547089,164.909241 
	C306.125732,162.855637 306.782990,160.522873 307.936218,157.593857 
M319.907959,156.132843 
	C320.130310,156.230591 320.352631,156.328323 320.574982,156.426071 
	C320.654572,156.148972 320.734161,155.871872 320.813751,155.594772 
	C320.431610,155.564880 320.049438,155.534973 319.907959,156.132843 
z"/>
<path fill="#168CC0" opacity="1.000000" stroke="none" 
	d="
M318.437164,345.151764 
	C321.466736,345.189758 324.069000,345.189758 326.671265,345.189758 
	C326.678680,344.716858 326.686096,344.243927 326.693512,343.771027 
	C325.647064,343.593323 324.592010,343.224670 323.555603,343.271149 
	C319.205994,343.466217 315.979401,342.104156 315.197479,337.382874 
	C314.479980,333.050964 317.239990,328.510010 321.830811,327.651917 
	C325.382751,326.988007 329.158142,327.519409 333.085907,327.519409 
	C332.953857,329.856567 333.008087,330.854889 332.812683,331.801697 
	C332.618683,332.741516 332.173340,333.629517 331.736023,334.818024 
	C328.805969,334.818024 325.958771,334.818024 323.111572,334.818024 
	C323.000183,335.321930 322.888794,335.825867 322.777405,336.329773 
	C327.489502,336.837982 332.924622,335.961273 334.516876,342.445221 
	C334.918274,342.221497 335.319702,341.997742 335.721100,341.774017 
	C335.721100,339.090515 335.709930,336.406982 335.723297,333.723572 
	C335.758484,326.651611 335.762726,326.651642 343.452454,327.379578 
	C343.452454,335.083710 343.452454,342.829590 343.452454,351.035858 
	C341.256744,351.374939 339.024750,351.719635 336.293182,352.141479 
	C336.054901,349.557037 335.850861,347.343811 335.693756,345.639587 
	C332.921661,347.877747 330.382996,351.217896 327.130554,352.204041 
	C323.615295,353.269928 319.433258,352.136780 313.747681,351.882599 
	C315.742371,348.714813 316.876099,346.914276 318.437164,345.151764 
z"/>
<path fill="#00B85F" opacity="1.000000" stroke="none" 
	d="
M102.845459,333.185333 
	C102.851395,337.491486 102.874931,341.324127 102.850494,345.156433 
	C102.807106,351.961487 102.794930,351.961395 95.510788,351.798309 
	C95.347931,350.776123 95.118126,349.696808 95.019775,348.605652 
	C94.935677,347.672607 95.002373,346.725983 95.002373,344.334351 
	C92.879677,347.865662 91.481537,350.191620 89.784462,353.014893 
	C88.000946,349.963593 86.486153,347.372009 84.444160,343.878510 
	C84.207695,347.006592 84.053238,349.049835 83.863068,351.565460 
	C81.521629,351.725037 79.299500,351.876495 76.374924,352.075806 
	C76.374924,344.735779 76.363708,337.928680 76.379227,331.121674 
	C76.388260,327.157990 79.718613,327.297424 82.107979,327.129089 
	C83.501518,327.030884 85.486092,328.299103 86.365143,329.544922 
	C87.729164,331.478119 88.376686,333.916870 89.821823,337.296173 
	C91.175713,334.294342 92.197632,332.450073 92.845345,330.482605 
	C93.604202,328.177490 94.686111,327.088470 97.393845,326.927704 
	C101.922928,326.658783 103.500008,328.449341 102.845459,333.185333 
z"/>
<path fill="#168CC0" opacity="1.000000" stroke="none" 
	d="
M385.250702,351.185181 
	C382.972260,348.081207 380.929626,345.284149 378.086487,341.390930 
	C378.086487,345.582642 378.086487,348.568542 378.086487,351.987183 
	C375.146301,351.987183 372.780060,351.987183 370.197754,351.987183 
	C370.197754,344.146576 370.197754,336.550201 370.197754,329.084503 
	C378.374603,323.501129 379.660706,331.821594 383.747498,335.861908 
	C383.918091,332.785309 384.057190,330.276337 384.215424,327.423065 
	C386.619995,327.423065 388.862061,327.423065 391.872467,327.423065 
	C391.872467,334.699615 392.243011,341.972504 391.710968,349.178802 
	C391.457489,352.612427 388.212189,352.381622 385.250702,351.185181 
z"/>
<path fill="#168CC0" opacity="1.000000" stroke="none" 
	d="
M364.003357,335.820099 
	C365.308655,335.925385 366.613953,336.030640 367.872192,336.132141 
	C369.390717,343.636780 367.117340,348.756592 361.370331,351.005157 
	C355.605072,353.260803 349.981628,351.927094 347.063416,347.611908 
	C343.724060,342.673981 344.878723,334.901123 349.634369,330.304840 
	C354.769562,325.341736 360.719452,324.882294 366.961823,329.220917 
	C366.021271,330.848358 365.059662,332.512207 363.649719,334.616272 
	C361.394165,334.966705 359.523529,334.537292 357.793579,334.860596 
	C354.566467,335.463715 352.739990,337.759766 353.398132,340.987396 
	C354.084381,344.352905 356.592346,344.610291 361.010803,343.035797 
	C355.502106,342.538544 355.061462,340.270477 356.414795,337.165314 
	C359.097839,336.689697 361.550598,336.254913 364.003357,335.820099 
z"/>
<path fill="#F5F5F5" opacity="1.000000" stroke="none" 
	d="
M210.049347,328.087646 
	C212.634048,327.860474 214.784332,327.514801 216.934738,327.514008 
	C225.583145,327.510803 229.699112,334.402466 225.687775,342.106812 
	C225.173416,343.094696 224.447327,343.972321 223.783386,344.954193 
	C224.953094,346.592438 225.992935,348.048828 227.209152,349.752197 
	C225.625107,351.127106 224.143143,352.413361 222.404724,353.922241 
	C220.310699,351.699097 218.286514,349.550110 215.587524,346.684662 
	C215.092194,349.167877 214.822113,350.521881 214.491104,352.181274 
	C212.292801,352.450104 210.019257,352.728149 207.042755,353.092133 
	C207.042755,345.319672 206.964066,337.898346 207.155594,330.484070 
	C207.176422,329.677948 208.757584,328.912140 210.049347,328.087646 
M215.362778,340.893677 
	C216.902023,339.617401 218.441269,338.341125 219.980530,337.064880 
	C218.574341,336.097260 217.168152,335.129669 214.959534,333.609924 
	C214.959534,336.881622 214.959534,338.524658 215.362778,340.893677 
z"/>
<path fill="#F5F5F5" opacity="1.000000" stroke="none" 
	d="
M279.055054,352.668762 
	C276.230316,353.132355 274.854919,352.655731 274.981201,349.728149 
	C275.174774,345.239502 275.005798,340.735291 274.995270,336.237701 
	C274.989838,333.914337 274.994293,331.590942 274.994293,328.654144 
	C280.722473,328.069794 286.250244,327.505920 292.096863,326.909515 
	C292.096863,329.387360 292.096863,331.343384 292.096863,333.581390 
	C288.873077,334.127014 285.634247,334.675201 282.395416,335.223389 
	C282.444305,335.627502 282.493195,336.031616 282.542084,336.435730 
	C285.486237,336.435730 288.430420,336.435730 291.366058,336.435730 
	C291.718048,340.597626 292.270782,344.668610 292.260254,348.738098 
	C292.257629,349.758087 290.576721,351.440125 289.439636,351.664398 
	C286.191620,352.304993 282.826599,352.352203 279.055054,352.668762 
M287.468170,345.076904 
	C288.579681,344.874817 289.691162,344.672729 290.802673,344.470642 
	C290.725983,343.974823 290.649261,343.479004 290.572571,342.983185 
	C287.978668,343.258453 285.384735,343.533722 282.790802,343.809021 
	C282.822937,344.257294 282.855103,344.705597 282.887238,345.153900 
	C284.083221,345.153900 285.279205,345.153900 287.468170,345.076904 
z"/>
<path fill="#F5F5F5" opacity="1.000000" stroke="none" 
	d="
M267.955994,349.090393 
	C263.265350,350.440491 258.902191,351.604675 253.323257,353.093323 
	C253.323257,344.273285 253.256165,337.011108 253.419312,329.754089 
	C253.437088,328.963562 254.639008,327.869171 255.535950,327.482574 
	C261.377960,324.964996 268.633850,326.329437 271.656830,330.359192 
	C274.554626,334.222107 273.798859,342.691437 270.113922,347.214508 
	C269.594635,347.851868 268.898041,348.344757 267.955994,349.090393 
M260.111023,340.266266 
	C260.182678,341.399048 260.254333,342.531830 260.334198,343.794434 
	C264.286682,343.606750 266.492737,341.994629 266.156219,337.921600 
	C265.853119,334.252838 263.538635,333.811035 260.102631,334.372772 
	C260.102631,336.135376 260.102631,337.771423 260.111023,340.266266 
z"/>
<path fill="#F5F5F5" opacity="1.000000" stroke="none" 
	d="
M232.043762,338.873352 
	C232.652634,336.729462 233.200195,334.987457 233.716690,333.236298 
	C235.877808,325.909027 235.874405,325.908020 244.115082,326.404266 
	C246.711655,333.881409 249.364685,341.521149 252.136536,349.503082 
	C248.710327,350.069000 246.008820,352.776581 242.778320,349.294861 
	C241.931381,348.382050 237.731461,348.722443 237.335754,349.558746 
	C235.207016,354.057709 232.039902,351.328156 228.656494,351.611908 
	C229.843262,347.189423 230.905716,343.230225 232.043762,338.873352 
z"/>
<path fill="#00B45D" opacity="1.000000" stroke="none" 
	d="
M153.511536,327.632416 
	C156.257980,327.392517 158.563812,327.232056 161.327225,327.039734 
	C161.327225,329.393433 161.327225,331.421143 161.327225,333.634033 
	C158.142487,334.135376 155.115631,334.611877 152.088791,335.088379 
	C152.084671,335.604340 152.080566,336.120300 152.076447,336.636261 
	C153.302887,336.636261 154.532562,336.692444 155.754913,336.621826 
	C157.237473,336.536194 158.713867,336.343536 160.639282,336.152985 
	C160.639282,338.291840 160.639282,340.186340 160.639282,342.475616 
	C158.081894,342.941162 155.273819,343.452332 152.465759,343.963501 
	C152.487503,344.259918 152.509247,344.556305 152.531006,344.852722 
	C155.326752,344.852722 158.122498,344.852722 160.817627,344.852722 
	C162.651443,350.790588 162.160889,351.554871 156.568939,351.973206 
	C152.652496,352.266174 148.736618,352.566742 144.194351,352.911438 
	C144.194351,345.164734 144.088165,338.053528 144.323395,330.953644 
	C144.354172,330.024292 146.000641,328.697784 147.138611,328.357666 
	C149.012955,327.797455 151.083252,327.892822 153.511536,327.632416 
z"/>
<path fill="#168CC0" opacity="1.000000" stroke="none" 
	d="
M409.862183,330.041626 
	C412.129852,336.655060 414.276489,342.893982 416.423126,349.132904 
	C416.142578,349.679474 415.862030,350.226044 415.581482,350.772644 
	C412.887329,350.250702 410.211792,349.545807 407.492676,349.269806 
	C405.612488,349.078979 403.579102,349.164154 401.781372,349.693634 
	C399.301849,350.423950 396.979919,351.689270 394.590485,352.725403 
	C394.126587,352.203064 393.662720,351.680695 393.198822,351.158356 
	C395.354340,343.601685 397.267975,335.959290 399.888092,328.567291 
	C400.360229,327.235168 403.756195,326.317261 405.770782,326.371765 
	C407.122986,326.408386 408.419647,328.496796 409.862183,330.041626 
z"/>
<path fill="#00B85F" opacity="1.000000" stroke="none" 
	d="
M63.536140,338.421204 
	C67.541504,345.448639 64.352295,352.152191 56.773811,352.732300 
	C53.437668,352.987671 50.008305,352.025177 46.275848,351.573853 
	C46.784370,349.020966 47.129620,347.287720 47.579468,345.029358 
	C51.029354,345.029358 54.332272,345.029358 57.635193,345.029358 
	C57.667194,344.649017 57.699200,344.268677 57.731201,343.888336 
	C56.778675,343.676758 55.832333,343.318207 54.872604,343.277832 
	C49.272530,343.042328 46.751766,341.204559 46.346500,336.949188 
	C45.915623,332.424866 49.170631,327.868195 53.958855,327.341766 
	C57.305649,326.973816 60.773270,327.704926 64.858307,327.992371 
	C64.286324,330.659576 63.888580,332.514313 63.432293,334.642029 
	C60.245346,334.642029 57.311100,334.642029 54.376850,334.642029 
	C54.341587,334.981232 54.306320,335.320435 54.271053,335.659637 
	C57.265728,336.494812 60.260403,337.329987 63.536140,338.421204 
z"/>
<path fill="#168CC0" opacity="1.000000" stroke="none" 
	d="
M453.640350,338.339172 
	C457.766571,345.040283 454.956787,351.782593 447.677032,352.626770 
	C444.198273,353.030212 440.563080,352.084900 436.423126,351.696442 
	C437.067810,348.976654 437.510498,347.109161 437.981964,345.120117 
	C441.470093,345.120117 444.643097,345.120117 447.816101,345.120117 
	C447.852203,344.700195 447.888306,344.280304 447.924408,343.860382 
	C446.794464,343.667145 445.667603,343.330841 444.534058,343.306671 
	C440.681152,343.224396 437.572815,342.148804 436.899780,337.785675 
	C436.207733,333.299103 437.749451,329.300354 442.088074,328.207306 
	C446.005249,327.220398 450.367279,327.998993 455.244598,327.998993 
	C454.504272,330.822968 454.019165,332.673370 453.493286,334.679352 
	C450.299255,334.679352 447.358246,334.679352 444.417236,334.679352 
	C444.383148,335.036316 444.349030,335.393280 444.314911,335.750244 
	C447.324738,336.529938 450.334595,337.309662 453.640350,338.339172 
z"/>
<path fill="#00B85F" opacity="1.000000" stroke="none" 
	d="
M119.583847,344.748901 
	C117.095520,345.741486 114.919319,346.523132 112.395790,347.429535 
	C112.545326,352.812988 108.699409,352.080627 104.243271,351.603760 
	C104.243271,344.328705 104.196861,337.070984 104.310577,329.815826 
	C104.322800,329.036682 105.259773,327.609406 105.779526,327.603943 
	C110.670074,327.552673 115.932175,326.649811 120.363129,328.142120 
	C126.031593,330.051239 125.467606,339.116608 119.583847,344.748901 
M116.406372,338.727661 
	C117.422112,333.932281 117.216682,333.705566 112.261429,334.405579 
	C112.261429,336.135864 112.261429,337.894409 112.261429,340.094238 
	C113.619484,339.747894 114.669350,339.480133 116.406372,338.727661 
z"/>
<path fill="#F5F5F5" opacity="1.000000" stroke="none" 
	d="
M205.302002,331.587341 
	C203.449936,332.956818 201.625092,333.919586 198.692795,335.466614 
	C198.692795,337.830719 198.704666,341.408173 198.690277,344.985504 
	C198.662125,351.978394 198.656052,351.978363 190.884583,351.706238 
	C190.884583,346.359436 190.884583,340.963593 190.884583,335.336487 
	C188.454727,335.336487 186.538589,335.336487 184.310120,335.336487 
	C184.310120,332.884186 184.310120,330.662476 184.310120,328.118713 
	C191.174347,327.459381 197.923309,326.811157 205.329239,326.099823 
	C205.329239,327.979767 205.329239,329.580231 205.302002,331.587341 
z"/>
<path fill="#00B85F" opacity="1.000000" stroke="none" 
	d="
M350.374634,182.474915 
	C350.635895,181.083832 351.276733,179.789627 352.060791,178.202850 
	C356.118011,179.888275 359.958130,182.034836 363.968750,183.792313 
	C367.334900,185.267349 370.899841,186.288727 375.086823,187.760574 
	C375.598328,184.675522 376.013824,182.169693 376.429291,179.663864 
	C376.892914,179.097122 377.356537,178.530396 377.820160,177.963654 
	C378.341797,179.259857 378.863434,180.556061 379.322083,182.333618 
	C379.116364,182.955734 378.973541,183.096512 378.549713,183.435028 
	C378.183838,185.932953 377.155670,189.573563 378.181519,190.295471 
	C382.104279,193.056061 386.687775,194.877762 391.025787,197.010468 
	C391.027008,196.970932 390.948914,196.958191 390.876831,197.315552 
	C391.219879,197.921585 391.635010,198.170242 392.295807,198.599243 
	C393.346191,198.858093 394.150909,198.936600 394.955597,199.015106 
	C395.539459,199.545746 396.123322,200.076370 397.824921,201.622879 
	C386.902374,200.897980 377.344818,200.263672 367.015717,199.578156 
	C369.179077,196.886398 370.945984,194.687973 373.195251,191.889374 
	C365.316650,188.618164 358.035431,185.594986 350.374634,182.474915 
z"/>
<path fill="#168CC0" opacity="1.000000" stroke="none" 
	d="
M425.493195,335.072388 
	C425.494019,338.175873 425.494019,340.799805 425.494019,343.709900 
	C428.692413,343.709900 431.436981,343.709900 434.575195,343.709900 
	C434.575195,345.802216 434.575195,347.842743 434.575195,350.474182 
	C429.298767,350.974884 423.965820,351.480927 418.097992,352.037750 
	C418.097992,344.203918 417.786804,336.931091 418.371857,329.731140 
	C418.483124,328.361481 422.140289,327.279938 424.161438,326.065460 
	C424.605072,326.477600 425.048737,326.889740 425.492371,327.301880 
	C425.492371,329.732178 425.492371,332.162506 425.493195,335.072388 
z"/>
<path fill="#00B85F" opacity="1.000000" stroke="none" 
	d="
M125.843697,344.911041 
	C125.865311,340.613373 125.868515,336.804413 125.916794,332.996002 
	C125.995201,326.810272 126.007645,326.810425 132.919861,327.284149 
	C132.919861,332.605042 132.919861,337.983734 132.919861,343.686371 
	C136.335861,343.686371 139.216568,343.686371 142.062225,343.686371 
	C143.631699,350.043213 143.255966,350.551544 137.008179,351.037445 
	C133.570007,351.304871 130.138840,351.662567 125.845520,352.058868 
	C125.845520,349.550201 125.845520,347.475098 125.843697,344.911041 
z"/>
<path fill="#00B85F" opacity="1.000000" stroke="none" 
	d="
M67.008179,344.887390 
	C67.004181,338.954193 67.004181,333.505768 67.004181,327.624878 
	C69.559914,327.356201 71.797249,327.120972 74.528595,326.833832 
	C74.528595,335.062775 74.528595,342.898712 74.528595,351.160522 
	C72.353661,351.433868 70.111061,351.715729 67.012177,352.105225 
	C67.012177,349.544525 67.012177,347.458313 67.008179,344.887390 
z"/>
<path fill="#0BBB66" opacity="1.000000" stroke="none" 
	d="
M303.836853,169.256958 
	C304.376801,169.131149 304.610260,169.305283 304.838715,170.102905 
	C294.083893,190.752441 283.279541,210.851624 272.475220,230.950806 
	C271.953735,230.617142 271.432251,230.283463 270.832458,229.727295 
	C278.870850,214.544937 286.970612,199.575882 295.113678,184.630417 
	C297.881256,179.550934 300.757996,174.530945 303.836853,169.256958 
z"/>
<path fill="#1E91C3" opacity="1.000000" stroke="none" 
	d="
M360.832214,131.861145 
	C360.827026,130.402817 361.044617,129.126862 361.350464,127.333626 
	C358.922455,127.169907 356.823029,127.028336 354.089539,126.844009 
	C355.380554,125.408218 356.415314,124.257401 357.885803,123.456398 
	C360.003265,127.057434 362.623932,126.652534 363.855774,124.121117 
	C365.897003,119.926392 366.982605,115.266640 368.470825,110.802803 
	C368.998840,110.001236 369.526886,109.199677 370.054932,108.398117 
	C370.389893,108.415398 370.724884,108.432678 371.059845,108.449959 
	C371.453491,116.445564 371.847107,124.441162 372.240723,132.436615 
	C369.556580,131.317474 367.260956,130.360306 364.566956,129.029190 
	C363.279083,129.906570 362.389526,131.157898 361.499969,132.409210 
	C361.351685,132.287323 361.203369,132.165436 360.832214,131.861145 
z"/>
<path fill="#DFF7EC" opacity="1.000000" stroke="none" 
	d="
M368.367004,110.918396 
	C366.982605,115.266640 365.897003,119.926392 363.855774,124.121117 
	C362.623932,126.652534 360.003265,127.057434 358.233704,123.434418 
	C358.145966,123.062622 358.093964,123.028130 358.403412,123.095657 
	C358.821503,122.780022 358.930176,122.396858 359.038818,122.013695 
	C359.038818,122.013695 358.998535,121.998856 359.318237,122.037277 
	C359.763245,121.708824 359.888550,121.341949 360.013855,120.975082 
	C360.013855,120.975082 360.012787,121.012642 360.298035,121.008377 
	C360.707367,120.647675 360.831451,120.291245 360.955505,119.934814 
	C360.955536,119.934822 360.995636,119.995728 361.259949,119.958344 
	C361.647797,119.566513 361.771332,119.212067 361.894836,118.857620 
	C361.894836,118.857613 361.934753,118.939873 362.246826,118.840088 
	C362.818085,118.085922 363.077271,117.431557 363.336487,116.777191 
	C363.336487,116.777191 363.641296,116.460365 364.051239,116.330231 
	C364.648712,115.792953 364.836212,115.385803 365.023712,114.978653 
	C365.023712,114.978645 365.020172,115.016968 365.290344,114.989365 
	C365.697388,114.619911 365.834320,114.278069 365.971222,113.936234 
	C365.971222,113.936234 365.995392,113.995781 366.292236,113.885834 
	C366.746643,113.358177 366.904205,112.940453 367.061737,112.522728 
	C367.462219,112.026474 367.862701,111.530220 368.367004,110.918396 
z"/>
<path fill="#00B45D" opacity="1.000000" stroke="none" 
	d="
M70.364517,325.215271 
	C69.303627,323.839508 67.668938,321.814575 68.046669,321.316833 
	C68.997795,320.063446 70.795601,319.068695 72.378044,318.844055 
	C73.142105,318.735626 74.185493,320.595062 75.102402,321.563477 
	C73.637245,322.796112 72.172089,324.028778 70.364517,325.215271 
z"/>
<path fill="#168CC0" opacity="1.000000" stroke="none" 
	d="
M336.487366,321.614807 
	C336.904266,320.870392 337.161865,320.132019 337.455902,320.117188 
	C339.466949,320.015900 341.485687,320.066467 343.501953,320.068115 
	C342.848938,321.656860 342.598541,324.120117 341.456238,324.646027 
	C339.306152,325.635895 336.406281,325.932953 336.487366,321.614807 
z"/>
<path fill="#000403" opacity="1.000000" stroke="none" 
	d="
M363.990997,335.573914 
	C361.550598,336.254913 359.097839,336.689697 356.414795,337.165314 
	C355.061462,340.270477 355.502106,342.538544 361.010803,343.035797 
	C356.592346,344.610291 354.084381,344.352905 353.398132,340.987396 
	C352.739990,337.759766 354.566467,335.463715 357.793579,334.860596 
	C359.523529,334.537292 361.394165,334.966705 363.568420,334.946594 
	C363.935516,334.836700 363.978638,335.327759 363.990997,335.573914 
z"/>
<path fill="#DFF7EC" opacity="1.000000" stroke="none" 
	d="
M361.391052,132.761047 
	C362.389526,131.157898 363.279083,129.906570 364.222839,128.992447 
	C364.201019,130.281494 364.124939,131.233337 364.021179,132.546722 
	C362.385925,136.714767 360.778381,140.521271 358.734528,144.662094 
	C357.929962,144.996246 357.561707,144.996078 357.193451,144.995911 
	C358.556335,141.034897 359.919220,137.073898 361.391052,132.761047 
z"/>
<path fill="#08BC66" opacity="1.000000" stroke="none" 
	d="
M344.699402,171.729279 
	C344.917419,172.217606 344.789612,172.530579 344.177185,172.843964 
	C340.997131,171.387192 338.301666,169.930008 335.795959,168.250061 
	C336.111877,167.878479 336.238037,167.729706 336.364227,167.580917 
	C339.027344,168.905243 341.690430,170.229568 344.699402,171.729279 
z"/>
<path fill="#0BBB66" opacity="1.000000" stroke="none" 
	d="
M384.003937,187.035309 
	C385.970673,189.104828 387.937408,191.174347 389.879272,193.703873 
	C389.854401,194.163895 389.577484,194.467346 389.304443,194.285950 
	C387.309814,192.178467 385.588226,190.252380 383.903381,188.003799 
	C383.961456,187.465988 383.982697,187.250656 384.003937,187.035309 
z"/>
<path fill="#0BBB66" opacity="1.000000" stroke="none" 
	d="
M188.509964,225.285568 
	C190.056305,226.502792 191.602631,227.720001 193.149353,229.392319 
	C193.015213,229.991760 192.880692,230.136108 192.449692,230.151337 
	C190.742294,228.708588 189.331390,227.394958 188.080109,225.891449 
	C188.239731,225.701599 188.509964,225.285568 188.509964,225.285568 
z"/>
<path fill="#0BBB66" opacity="1.000000" stroke="none" 
	d="
M394.847107,198.716965 
	C394.150909,198.936600 393.346191,198.858093 392.323792,198.223740 
	C391.720367,197.431320 391.334656,197.194763 390.948914,196.958191 
	C390.948914,196.958191 391.027008,196.970932 391.091370,196.715271 
	C390.948059,196.113998 390.740417,195.768387 390.684418,195.284241 
	C390.836029,195.145721 391.135376,194.864426 391.135376,194.864426 
	C392.336456,196.049210 393.537537,197.234009 394.847107,198.716965 
z"/>
<path fill="#0BBB66" opacity="1.000000" stroke="none" 
	d="
M183.133499,220.852814 
	C183.761063,221.291977 184.388626,221.731125 185.014297,222.581848 
	C185.012405,222.993408 184.709549,223.317062 184.445038,223.203232 
	C183.607468,222.582077 183.034409,222.074738 182.629578,221.388931 
	C182.797791,221.210464 183.133499,220.852814 183.133499,220.852814 
z"/>
<path fill="#0BBB66" opacity="1.000000" stroke="none" 
	d="
M194.807373,230.175476 
	C194.827225,230.573349 194.596375,230.828186 193.891968,231.081268 
	C193.194321,230.813171 192.970245,230.546829 192.746170,230.280472 
	C192.880692,230.136108 193.015213,229.991760 193.362976,229.639771 
	C193.903030,229.632233 194.229858,229.832336 194.807373,230.175476 
z"/>
<path fill="#1E91C3" opacity="1.000000" stroke="none" 
	d="
M362.996643,116.923019 
	C363.077271,117.431557 362.818085,118.085922 362.201538,118.833603 
	C362.115082,118.307556 362.385956,117.688194 362.996643,116.923019 
z"/>
<path fill="#08BC66" opacity="1.000000" stroke="none" 
	d="
M330.349426,164.636322 
	C331.069305,164.637894 331.569885,164.870178 332.078735,165.505798 
	C331.949097,166.069962 331.811096,166.230759 331.402710,166.305847 
	C330.658264,165.928650 330.184235,165.637146 329.710175,165.345642 
	C329.850128,165.186111 329.990082,165.026566 330.349426,164.636322 
z"/>
<path fill="#08BC66" opacity="1.000000" stroke="none" 
	d="
M332.300385,165.673553 
	C333.013214,165.672348 333.512726,165.906769 334.024414,166.549957 
	C333.904419,167.112976 333.772186,167.267242 333.371735,167.333588 
	C332.626740,166.960953 332.149933,166.676254 331.673126,166.391556 
	C331.811096,166.230759 331.949097,166.069962 332.300385,165.673553 
z"/>
<path fill="#08BC66" opacity="1.000000" stroke="none" 
	d="
M334.236755,166.728897 
	C334.945831,166.728928 335.454742,166.958771 336.163940,167.384766 
	C336.238037,167.729706 336.111877,167.878479 335.532227,168.150177 
	C334.599182,167.989243 334.119568,167.705368 333.639923,167.421509 
	C333.772186,167.267242 333.904419,167.112976 334.236755,166.728897 
z"/>
<path fill="#0BBB66" opacity="1.000000" stroke="none" 
	d="
M181.503494,219.382370 
	C181.954941,219.710281 182.406372,220.038193 182.995667,220.609451 
	C183.133499,220.852814 182.797791,221.210464 182.407471,221.230042 
	C181.660980,220.850845 181.304810,220.452087 181.094574,219.891571 
	C181.240540,219.729828 181.503494,219.382370 181.503494,219.382370 
z"/>
<path fill="#00B85F" opacity="1.000000" stroke="none" 
	d="
M382.524384,185.367432 
	C382.787140,185.592712 383.049866,185.817978 383.252411,186.432266 
	C383.059296,186.949524 382.926361,187.077789 382.556396,187.121063 
	C382.143951,186.759323 381.968567,186.482574 381.983276,186.002563 
	C382.290375,185.655334 382.407379,185.511383 382.524384,185.367432 
z"/>
<path fill="#00B85F" opacity="1.000000" stroke="none" 
	d="
M383.945862,186.866974 
	C383.982697,187.250656 383.961456,187.465988 383.658142,187.887695 
	C383.181915,187.798050 382.987671,187.502045 382.793457,187.206039 
	C382.926361,187.077789 383.059296,186.949524 383.406372,186.642181 
	C383.620575,186.463089 383.887756,186.698624 383.945862,186.866974 
z"/>
<path fill="#00B85F" opacity="1.000000" stroke="none" 
	d="
M381.540558,184.294693 
	C381.820801,184.472992 382.052490,184.700638 382.380005,185.172546 
	C382.407379,185.511383 382.290375,185.655334 381.746155,185.917465 
	C381.144409,185.758408 380.969849,185.481171 380.992188,184.985321 
	C381.306274,184.609375 381.423401,184.452026 381.540558,184.294693 
z"/>
<path fill="#00B85F" opacity="1.000000" stroke="none" 
	d="
M380.521301,183.231384 
	C380.768524,183.449600 381.015717,183.667816 381.401733,184.090363 
	C381.423401,184.452026 381.306274,184.609375 380.754456,184.901154 
	C380.145660,184.757843 379.971558,184.480072 379.994141,183.971283 
	C380.300995,183.570633 380.411163,183.401001 380.521301,183.231384 
z"/>
<path fill="#00B85F" opacity="1.000000" stroke="none" 
	d="
M379.503357,182.639297 
	C379.962646,182.587875 380.149628,182.745514 380.414856,183.083969 
	C380.411163,183.401001 380.300995,183.570633 379.761841,183.893616 
	C379.036102,183.857300 378.868744,183.587418 378.830750,183.237289 
	C378.973541,183.096512 379.116364,182.955734 379.503357,182.639297 
z"/>
<path fill="#1E91C3" opacity="1.000000" stroke="none" 
	d="
M366.742035,112.648323 
	C366.904205,112.940453 366.746643,113.358177 366.260437,113.881104 
	C366.095306,113.582176 366.258820,113.178047 366.742035,112.648323 
z"/>
<path fill="#1E91C3" opacity="1.000000" stroke="none" 
	d="
M364.698242,115.048698 
	C364.836212,115.385803 364.648712,115.792953 364.106812,116.234924 
	C363.959198,115.886078 364.165985,115.502411 364.698242,115.048698 
z"/>
<path fill="#1E91C3" opacity="1.000000" stroke="none" 
	d="
M365.681335,113.968582 
	C365.834320,114.278069 365.697388,114.619911 365.271423,114.992828 
	C365.118683,114.682915 365.255066,114.341919 365.681335,113.968582 
z"/>
<path fill="#1E91C3" opacity="1.000000" stroke="none" 
	d="
M358.739319,122.014984 
	C358.930176,122.396858 358.821503,122.780022 358.385834,123.121445 
	C358.185791,122.725220 358.312805,122.370743 358.739319,122.014984 
z"/>
<path fill="#1E91C3" opacity="1.000000" stroke="none" 
	d="
M359.707001,120.979240 
	C359.888550,121.341949 359.763245,121.708824 359.327362,122.056732 
	C359.144562,121.686317 359.272369,121.334862 359.707001,120.979240 
z"/>
<path fill="#1E91C3" opacity="1.000000" stroke="none" 
	d="
M360.645203,119.919022 
	C360.831451,120.291245 360.707367,120.647675 360.279266,121.009262 
	C360.095123,120.644020 360.215027,120.273621 360.645203,119.919022 
z"/>
<path fill="#1E91C3" opacity="1.000000" stroke="none" 
	d="
M361.572418,118.851845 
	C361.771332,119.212067 361.647797,119.566513 361.227325,119.942078 
	C361.036926,119.590820 361.143433,119.218445 361.572418,118.851845 
z"/>
<path fill="#0BBB66" opacity="1.000000" stroke="none" 
	d="
M389.994690,194.013885 
	C390.469666,193.948456 390.736053,194.132126 391.034729,194.639648 
	C391.135376,194.864426 390.836029,195.145721 390.485474,195.168304 
	C389.886566,194.997925 389.700745,194.756744 389.577484,194.467346 
	C389.577484,194.467346 389.854401,194.163895 389.994690,194.013885 
z"/>
<path fill="#0BBB66" opacity="1.000000" stroke="none" 
	d="
M178.118103,216.882614 
	C178.549713,216.856186 178.827652,217.020920 179.075256,217.583588 
	C179.085129,217.913681 178.832382,218.167313 178.602600,218.085083 
	C178.068420,217.838028 177.870773,217.588638 177.779846,217.254654 
	C177.779846,217.254654 178.004639,217.005981 178.118103,216.882614 
z"/>
<path fill="#0BBB66" opacity="1.000000" stroke="none" 
	d="
M179.211121,217.786484 
	C179.655945,217.760773 179.940048,217.923065 180.191254,218.479584 
	C180.193130,218.812988 179.893921,219.104889 179.659744,219.021729 
	C179.120285,218.764221 178.922562,218.507126 178.832382,218.167313 
	C178.832382,218.167313 179.085129,217.913681 179.211121,217.786484 
z"/>
<path fill="#0BBB66" opacity="1.000000" stroke="none" 
	d="
M180.346802,218.671326 
	C180.762070,218.670776 180.999023,218.845322 181.357422,219.217834 
	C181.503494,219.382370 181.240540,219.729828 180.855988,219.813980 
	C180.278946,219.633713 180.086441,219.369293 179.893921,219.104889 
	C179.893921,219.104889 180.193130,218.812988 180.346802,218.671326 
z"/>
<path fill="#0BBB66" opacity="1.000000" stroke="none" 
	d="
M187.504120,224.390137 
	C187.783142,224.522049 188.022018,224.706055 188.365356,225.113861 
	C188.509964,225.285568 188.239731,225.701599 187.840881,225.815689 
	C187.246262,225.668182 187.050491,225.406586 187.024231,224.962418 
	C187.193710,224.779846 187.504120,224.390137 187.504120,224.390137 
z"/>
<path fill="#0BBB66" opacity="1.000000" stroke="none" 
	d="
M186.455444,223.514023 
	C186.736465,223.646988 186.984192,223.825989 187.351379,224.220596 
	C187.504120,224.390137 187.193710,224.779846 186.788116,224.881271 
	C186.074203,224.807068 185.879593,224.546478 185.965225,224.031433 
	C186.131744,223.861938 186.455444,223.514023 186.455444,223.514023 
z"/>
<path fill="#0BBB66" opacity="1.000000" stroke="none" 
	d="
M185.164124,222.831848 
	C185.627167,222.769119 185.903198,222.928879 186.299713,223.331787 
	C186.455444,223.514023 186.131744,223.861938 185.734802,223.950531 
	C185.029877,223.884186 184.820450,223.643494 184.709549,223.317062 
	C184.709549,223.317062 185.012405,222.993408 185.164124,222.831848 
z"/>
<path fill="#000202" opacity="1.000000" stroke="none" 
	d="
M281.711670,234.506744 
	C291.042816,214.852509 300.583527,195.498611 310.123077,176.144150 
	C311.864746,172.610504 319.597412,169.509094 323.335205,171.019928 
	C329.488373,173.507034 335.580383,176.145508 342.049805,178.879333 
	C334.683868,199.864502 327.251465,220.806335 318.897430,241.373840 
	C317.820587,244.025009 311.323578,246.838455 308.445953,245.957108 
	C299.321777,243.162674 290.722870,238.653259 281.711670,234.506744 
z"/>
<path fill="#000202" opacity="1.000000" stroke="none" 
	d="
M263.331238,241.624710 
	C259.518982,249.232361 255.546738,256.546448 251.467072,263.800110 
	C249.227997,267.781097 241.293686,269.117462 237.767960,266.173431 
	C226.261185,256.565125 214.774994,246.932129 202.992249,237.097824 
	C206.153320,233.314423 209.040054,228.664490 213.216263,226.482040 
	C217.137726,224.432755 223.099640,223.231522 226.980972,224.726944 
	C239.326096,229.483353 251.119690,235.671204 263.331238,241.624710 
z"/>
<path fill="#000403" opacity="1.000000" stroke="none" 
	d="
M140.132690,292.285858 
	C140.151306,291.129364 139.813843,289.817413 140.240891,288.839233 
	C149.561874,267.488220 158.961472,246.171463 168.377258,224.861969 
	C168.826019,223.846344 169.562653,222.957932 170.585373,221.349487 
	C176.459839,226.741150 182.040009,231.862701 187.941071,237.184845 
	C186.810684,239.413559 185.359406,241.441681 183.985199,243.787109 
	C184.062256,244.104416 184.094543,244.044540 183.743591,244.019653 
	C180.149414,248.093719 176.906174,252.192673 173.455612,256.390137 
	C172.620667,256.909912 171.993057,257.331238 170.990570,257.887146 
	C170.392059,258.671234 170.168427,259.320770 169.973984,259.981232 
	C170.003174,259.992188 169.960144,259.946869 169.627014,259.788635 
	C167.545898,261.777161 165.797928,263.923920 164.024490,266.039062 
	C163.999023,266.007477 164.067734,266.050446 163.756699,266.027588 
	C163.319931,266.365234 163.194199,266.725739 163.058334,267.042480 
	C163.048187,266.998688 163.113602,267.060364 162.808105,267.038208 
	C162.229309,267.512451 161.956009,268.008789 161.653961,268.549530 
	C161.625229,268.593933 161.581329,268.690155 161.309586,268.704193 
	C160.921616,269.031128 160.805405,269.344025 160.742554,269.720001 
	C160.795914,269.783081 160.646942,269.711548 160.357971,269.721527 
	C159.953430,270.065125 159.837875,270.398712 159.857330,270.836823 
	C159.992340,270.941315 159.722900,270.739929 159.422974,270.746216 
	C159.001205,271.099548 158.879364,271.446533 158.847153,271.887329 
	C158.936783,271.981140 158.785141,271.770630 158.477692,271.776428 
	C158.046799,272.138947 157.923355,272.495605 157.861969,272.896545 
	C157.924011,272.940796 157.844299,272.810883 157.533630,272.815979 
	C157.099625,273.181793 156.976318,273.542480 156.902954,273.935120 
	C156.952896,273.967041 156.895752,273.863159 156.585892,273.863892 
	C156.155670,274.225769 156.035324,274.586884 155.952408,274.970428 
	C155.989838,274.992828 155.943573,274.918854 155.641266,274.914734 
	C155.205872,275.263672 155.072800,275.616791 154.966888,275.985046 
	C154.994080,276.000183 154.975250,275.940887 154.646942,275.973053 
	C154.087936,276.371857 153.857254,276.738464 153.406860,277.324585 
	C148.835678,282.458008 144.484192,287.371948 140.132690,292.285858 
z"/>
<path fill="#F2F9FC" opacity="1.000000" stroke="none" 
	d="
M276.017822,235.014832 
	C286.749725,239.606155 297.120087,244.077286 307.633667,248.610138 
	C306.950653,252.033920 305.504211,252.566742 302.426117,251.184402 
	C278.758057,240.555252 255.014191,230.094971 231.332153,219.496689 
	C229.922165,218.865677 228.841980,217.497665 227.608337,216.472610 
	C227.997528,215.901520 228.386719,215.330444 228.775909,214.759354 
	C244.402725,221.471115 260.029541,228.182877 276.017822,235.014832 
z"/>
<path fill="#E7F4F9" opacity="1.000000" stroke="none" 
	d="
M357.037903,145.333893 
	C357.561707,144.996078 357.929962,144.996246 358.574463,144.994537 
	C347.769531,177.170959 336.705444,209.355209 325.538757,241.503830 
	C325.132690,242.672882 323.718933,243.491928 322.774780,244.474106 
	C322.279175,244.103226 321.783569,243.732361 321.287964,243.361481 
	C333.152771,210.798279 345.017578,178.235077 357.037903,145.333893 
z"/>
<path fill="#F0FBF6" opacity="1.000000" stroke="none" 
	d="
M272.810974,231.136612 
	C283.279541,210.851624 294.083893,190.752441 304.937134,170.300995 
	C306.261963,170.201996 307.537903,170.455261 309.279968,170.801041 
	C298.093048,191.531036 287.254913,211.614655 276.209351,231.992706 
	C275.050201,231.965576 274.098480,231.643997 272.810974,231.136612 
z"/>
<path fill="#F0FBF6" opacity="1.000000" stroke="none" 
	d="
M201.581680,238.417740 
	C213.879623,248.935440 225.828003,259.417999 238.315445,270.373505 
	C237.079010,271.377197 236.114273,272.160339 234.800568,273.226746 
	C223.039246,262.500641 211.309418,251.803253 199.272034,240.928146 
	C199.720352,239.961151 200.476242,239.171875 201.581680,238.417740 
z"/>
<path fill="#E7F4F9" opacity="1.000000" stroke="none" 
	d="
M171.365448,257.752563 
	C171.993057,257.331238 172.620667,256.909912 173.815430,256.283997 
	C176.341354,254.076889 178.447159,252.194717 180.213776,250.035049 
	C181.710953,248.204742 182.815994,246.053680 184.094543,244.044540 
	C184.094543,244.044540 184.062256,244.104416 184.081360,244.132111 
	C185.352585,243.384918 186.835007,242.830124 187.819809,241.799728 
	C194.709641,234.591003 201.496628,227.284012 208.428329,219.889114 
	C211.949692,222.385315 209.330627,223.893814 207.904648,225.358826 
	C193.498978,240.159058 179.056961,254.923935 164.072006,269.774902 
	C163.299255,269.512177 163.079636,269.173309 163.024353,268.528870 
	C163.265594,268.088715 163.424484,267.938751 163.402786,267.822510 
	C163.353729,267.559601 163.215546,267.313385 163.113602,267.060364 
	C163.113602,267.060364 163.048187,266.998688 163.410217,267.133545 
	C163.870758,266.862427 163.969254,266.456451 164.067734,266.050446 
	C164.067734,266.050446 163.999023,266.007477 164.363937,266.175293 
	C166.472610,264.211029 168.216385,262.078949 169.960144,259.946869 
	C169.960144,259.946869 170.003174,259.992188 170.393677,259.948547 
	C170.977951,259.187469 171.171707,258.470032 171.365448,257.752563 
z"/>
<path fill="#F0FBF6" opacity="1.000000" stroke="none" 
	d="
M269.266144,244.536972 
	C265.575836,251.982025 261.807617,259.194427 257.744690,266.236816 
	C257.092773,267.366821 255.124008,267.737091 253.763992,268.458557 
	C253.433746,267.956787 253.103516,267.455017 252.773285,266.953278 
	C256.913361,259.229889 261.053436,251.506516 265.359070,243.438721 
	C266.713287,243.478851 267.901917,243.863403 269.266144,244.536972 
z"/>
<path fill="#F2F9FC" opacity="1.000000" stroke="none" 
	d="
M323.284973,262.318726 
	C318.848450,264.651398 315.508881,264.023163 314.282532,260.692780 
	C313.103271,257.490295 313.879028,254.567993 317.232239,253.265732 
	C320.465179,252.010147 323.399719,253.161835 324.448364,256.518982 
	C324.945587,258.110748 323.904114,260.183105 323.284973,262.318726 
z"/>
<path fill="#A3D3E8" opacity="1.000000" stroke="none" 
	d="
M162.860001,268.834412 
	C163.079636,269.173309 163.299255,269.512177 163.803772,269.969604 
	C155.013184,279.283051 145.937714,288.477936 136.547562,297.696655 
	C137.468430,296.114441 138.703979,294.508362 140.036133,292.594055 
	C144.484192,287.371948 148.835678,282.458008 153.755096,277.310211 
	C154.540436,276.697845 154.757843,276.319366 154.975250,275.940887 
	C154.975250,275.940887 154.994080,276.000183 155.258316,275.964081 
	C155.662888,275.591614 155.803223,275.255219 155.943573,274.918854 
	C155.943573,274.918854 155.989838,274.992828 156.245331,274.944397 
	C156.632477,274.551697 156.764114,274.207428 156.895752,273.863159 
	C156.895752,273.863159 156.952896,273.967041 157.199493,273.910522 
	C157.578827,273.506287 157.711563,273.158569 157.844299,272.810883 
	C157.844299,272.810883 157.924011,272.940796 158.162170,272.878906 
	C158.528595,272.468231 158.656860,272.119446 158.785141,271.770630 
	C158.785141,271.770630 158.936783,271.981140 159.150604,271.885254 
	C159.483932,271.439545 159.603409,271.089722 159.722900,270.739929 
	C159.722900,270.739929 159.992340,270.941315 160.162994,270.852966 
	C160.438065,270.413605 160.542496,270.062561 160.646942,269.711548 
	C160.646942,269.711548 160.795914,269.783081 161.044067,269.753967 
	C161.388580,269.379944 161.484955,269.035034 161.581329,268.690155 
	C161.581329,268.690155 161.625229,268.593933 161.927124,268.708984 
	C162.439362,268.827484 162.649689,268.830963 162.860001,268.834412 
z"/>
<path fill="#E7F4F9" opacity="1.000000" stroke="none" 
	d="
M327.492462,251.691330 
	C323.184052,248.858185 318.700958,248.032425 314.106598,250.885208 
	C309.519867,253.733215 308.178162,258.043488 308.917450,263.215149 
	C309.028320,263.990845 308.726044,264.825623 308.300110,265.917786 
	C307.985321,266.202545 308.027069,266.137299 307.999054,266.154663 
	C307.877350,265.195984 307.906281,264.189209 307.670166,263.248962 
	C306.057190,256.826447 307.852661,251.548889 312.749207,248.507126 
	C317.393768,245.621918 322.918793,246.244843 327.817657,250.728256 
	C327.694641,251.395798 327.593536,251.543564 327.492462,251.691330 
z"/>
<path fill="#DFF7EC" opacity="1.000000" stroke="none" 
	d="
M184.445038,223.203232 
	C184.820450,223.643494 185.029877,223.884186 185.568283,224.120026 
	C185.879593,224.546478 186.074203,224.807068 186.618637,225.063843 
	C187.050491,225.406586 187.246262,225.668182 187.681244,226.005554 
	C189.331390,227.394958 190.742294,228.708588 192.449692,230.151337 
	C192.970245,230.546829 193.194321,230.813171 193.659790,231.199356 
	C193.251450,232.147888 192.601746,232.976578 191.684067,233.876495 
	C186.928894,229.767822 182.354324,225.674850 178.031708,221.331146 
	C177.213135,220.508606 177.394623,218.690811 177.447266,217.293457 
	C177.870773,217.588638 178.068420,217.838028 178.602600,218.085083 
	C178.922562,218.507126 179.120285,218.764221 179.659744,219.021729 
	C180.086441,219.369293 180.278946,219.633713 180.710037,219.975739 
	C181.304810,220.452087 181.660980,220.850845 182.239258,221.408508 
	C183.034409,222.074738 183.607468,222.582077 184.445038,223.203232 
z"/>
<path fill="#F2F9FC" opacity="1.000000" stroke="none" 
	d="
M221.654739,213.337585 
	C220.601822,215.296356 219.586899,217.177094 218.031815,218.327911 
	C217.598434,218.648590 214.899353,217.061752 214.460312,215.891891 
	C214.032043,214.750778 215.132629,211.784378 215.617783,211.771820 
	C217.562912,211.721451 219.529709,212.507095 221.654739,213.337585 
z"/>
<path fill="#DFF7EC" opacity="1.000000" stroke="none" 
	d="
M333.371735,167.333572 
	C334.119568,167.705368 334.599182,167.989243 335.342499,168.372971 
	C338.301666,169.930008 340.997131,171.387192 344.055603,172.968353 
	C344.351746,173.527054 344.284882,173.961777 344.076965,174.698395 
	C337.336792,171.810745 330.737640,168.621201 324.138519,165.431641 
	C324.408539,164.834976 324.678558,164.238297 324.948578,163.641632 
	C326.304657,164.137817 327.660736,164.634003 329.363495,165.237915 
	C330.184235,165.637146 330.658264,165.928650 331.402710,166.305847 
	C332.149933,166.676254 332.626740,166.960953 333.371735,167.333572 
z"/>
<path fill="#DFF7EC" opacity="1.000000" stroke="none" 
	d="
M215.234512,208.919312 
	C213.173691,210.672623 211.468521,212.287903 209.581619,214.075333 
	C210.514038,207.017899 216.571136,204.407684 222.895325,208.249969 
	C220.329163,208.436615 217.959656,208.608948 215.234512,208.919312 
z"/>
<path fill="#E7F4F9" opacity="1.000000" stroke="none" 
	d="
M329.335754,253.280182 
	C329.595520,253.233154 329.693451,253.353241 329.791412,253.473343 
	C329.585602,253.464661 329.379791,253.455978 329.335754,253.280182 
z"/>
<path fill="#E7F4F9" opacity="1.000000" stroke="none" 
	d="
M327.976837,251.049683 
	C328.363892,251.214920 328.569916,251.578491 328.775909,251.942047 
	C328.502594,251.992889 328.229279,252.043732 327.724213,251.892944 
	C327.593536,251.543564 327.694641,251.395798 327.976837,251.049683 
z"/>
<path fill="#F2F9FC" opacity="1.000000" stroke="none" 
	d="
M250.474869,288.916412 
	C245.797546,289.864807 242.758423,288.441284 242.064850,283.945007 
	C241.503448,280.305634 243.374634,277.385376 246.992508,277.252075 
	C249.185104,277.171265 252.358231,278.607391 253.490677,280.382751 
	C255.482910,283.505951 254.303528,286.769775 250.474869,288.916412 
z"/>
<path fill="#DFF7EC" opacity="1.000000" stroke="none" 
	d="
M258.825928,277.158752 
	C254.353851,273.335358 249.448364,271.480164 243.692810,274.047272 
	C237.463959,276.825439 236.011383,282.279755 236.092438,288.810394 
	C232.839188,283.583618 234.650925,276.607025 239.912308,272.721680 
	C246.177094,268.095367 253.451355,269.293427 259.241943,276.367554 
	C259.077972,276.935364 258.951935,277.047058 258.825928,277.158752 
z"/>
<path fill="#DFF7EC" opacity="1.000000" stroke="none" 
	d="
M259.404419,276.669891 
	C259.608215,277.288361 259.611633,278.060577 259.615021,278.832825 
	C259.373383,278.497131 259.131744,278.161438 258.858032,277.492249 
	C258.951935,277.047058 259.077972,276.935364 259.404419,276.669891 
z"/>
<path fill="#DFF7EC" opacity="1.000000" stroke="none" 
	d="
M151.984161,254.988892 
	C151.059021,257.005829 150.252197,258.661591 149.445374,260.317352 
	C149.027145,260.119568 148.608917,259.921783 148.190689,259.723969 
	C153.394241,246.804718 158.597778,233.885468 163.801331,220.966217 
	C164.509064,221.248260 165.216797,221.530304 165.924530,221.812363 
	C161.317169,232.750809 156.709808,243.689255 151.984161,254.988892 
z"/>
<path fill="#DFF7EC" opacity="1.000000" stroke="none" 
	d="
M171.749512,214.437805 
	C169.931366,215.185776 168.237625,215.902496 166.606735,215.780334 
	C166.114685,215.743469 165.188370,213.147217 165.568954,212.143494 
	C165.957779,211.118073 168.361618,209.742508 168.743210,210.030563 
	C170.062943,211.026779 170.885956,212.681015 171.749512,214.437805 
z"/>
<path fill="#F0FBF6" opacity="1.000000" stroke="none" 
	d="
M316.132019,164.845001 
	C313.964264,164.372803 311.788025,164.120132 310.440430,162.929550 
	C309.802917,162.366287 310.228943,159.233124 311.103027,158.643951 
	C312.428925,157.750275 315.067017,157.265579 316.256439,158.017303 
	C318.998138,159.750107 318.811798,162.368637 316.132019,164.845001 
z"/>
<path fill="#DFF7EC" opacity="1.000000" stroke="none" 
	d="
M307.688232,157.891983 
	C306.782990,160.522873 306.125732,162.855637 305.547089,164.909241 
	C304.117554,160.011246 305.080750,156.277435 308.868317,153.990173 
	C312.358002,151.882782 315.903748,151.570374 318.279022,153.612427 
	C315.060181,154.851517 311.498199,156.222687 307.688232,157.891983 
z"/>
<path fill="#DFF7EC" opacity="1.000000" stroke="none" 
	d="
M319.787628,155.818970 
	C320.049438,155.534973 320.431610,155.564880 320.813751,155.594772 
	C320.734161,155.871872 320.654572,156.148972 320.574982,156.426056 
	C320.352631,156.328323 320.130310,156.230591 319.787628,155.818970 
z"/>
<path fill="#000403" opacity="1.000000" stroke="none" 
	d="
M215.161163,340.530701 
	C214.959534,338.524658 214.959534,336.881622 214.959534,333.609924 
	C217.168152,335.129669 218.574341,336.097260 219.980530,337.064880 
	C218.441269,338.341125 216.902023,339.617401 215.161163,340.530701 
z"/>
<path fill="#000000" opacity="1.000000" stroke="none" 
	d="
M286.971680,345.115417 
	C285.279205,345.153900 284.083221,345.153900 282.887238,345.153900 
	C282.855103,344.705597 282.822937,344.257294 282.790802,343.809021 
	C285.384735,343.533722 287.978668,343.258453 290.572571,342.983185 
	C290.649261,343.479004 290.725983,343.974823 290.802673,344.470642 
	C289.691162,344.672729 288.579681,344.874817 286.971680,345.115417 
z"/>
<path fill="#000403" opacity="1.000000" stroke="none" 
	d="
M260.106812,339.836853 
	C260.102631,337.771423 260.102631,336.135376 260.102631,334.372772 
	C263.538635,333.811035 265.853119,334.252838 266.156219,337.921600 
	C266.492737,341.994629 264.286682,343.606750 260.334198,343.794434 
	C260.254333,342.531830 260.182678,341.399048 260.106812,339.836853 
z"/>
<path fill="#000403" opacity="1.000000" stroke="none" 
	d="
M116.062798,338.970032 
	C114.669350,339.480133 113.619484,339.747894 112.261429,340.094238 
	C112.261429,337.894409 112.261429,336.135864 112.261429,334.405579 
	C117.216682,333.705566 117.422112,333.932281 116.062798,338.970032 
z"/>
<path fill="#F0FBF6" opacity="1.000000" stroke="none" 
	d="
M389.304443,194.285950 
	C389.700745,194.756744 389.886566,194.997925 390.333862,195.306839 
	C390.740417,195.768387 390.948059,196.113998 391.090149,196.754807 
	C386.687775,194.877762 382.104279,193.056061 378.181519,190.295471 
	C377.155670,189.573563 378.183838,185.932953 378.549713,183.435028 
	C378.868744,183.587418 379.036102,183.857300 379.565186,184.124619 
	C379.971558,184.480072 380.145660,184.757843 380.557556,185.119781 
	C380.969849,185.481171 381.144409,185.758408 381.556091,186.120743 
	C381.968567,186.482574 382.143951,186.759323 382.556396,187.121063 
	C382.987671,187.502045 383.181915,187.798050 383.621368,188.210175 
	C385.588226,190.252380 387.309814,192.178467 389.304443,194.285950 
z"/>
<path fill="#F0FBF6" opacity="1.000000" stroke="none" 
	d="
M390.876831,197.315552 
	C391.334656,197.194763 391.720367,197.431320 392.078125,198.043396 
	C391.635010,198.170242 391.219879,197.921585 390.876831,197.315552 
z"/>
<path fill="#1E91C3" opacity="1.000000" stroke="none" 
	d="
M183.743607,244.019653 
	C182.815994,246.053680 181.710953,248.204742 180.213776,250.035049 
	C178.447159,252.194717 176.341354,254.076889 174.022766,256.185486 
	C176.906174,252.192673 180.149414,248.093719 183.743607,244.019653 
z"/>
<path fill="#1E91C3" opacity="1.000000" stroke="none" 
	d="
M169.627014,259.788635 
	C168.216385,262.078949 166.472610,264.211029 164.389404,266.206879 
	C165.797928,263.923920 167.545898,261.777161 169.627014,259.788635 
z"/>
<path fill="#1E91C3" opacity="1.000000" stroke="none" 
	d="
M163.024353,268.528870 
	C162.649689,268.830963 162.439362,268.827484 161.955872,268.664581 
	C161.956009,268.008789 162.229309,267.512451 162.808105,267.038208 
	C163.215546,267.313385 163.353729,267.559601 163.402786,267.822510 
	C163.424484,267.938751 163.265594,268.088715 163.024353,268.528870 
z"/>
<path fill="#1E91C3" opacity="1.000000" stroke="none" 
	d="
M170.990570,257.887146 
	C171.171707,258.470032 170.977951,259.187469 170.364502,259.937622 
	C170.168427,259.320770 170.392059,258.671234 170.990570,257.887146 
z"/>
<path fill="#1E91C3" opacity="1.000000" stroke="none" 
	d="
M163.756699,266.027588 
	C163.969254,266.456451 163.870758,266.862427 163.420380,267.177368 
	C163.194199,266.725739 163.319931,266.365234 163.756699,266.027588 
z"/>
<path fill="#1E91C3" opacity="1.000000" stroke="none" 
	d="
M159.422974,270.746216 
	C159.603409,271.089722 159.483932,271.439545 159.060974,271.791443 
	C158.879364,271.446533 159.001205,271.099548 159.422974,270.746216 
z"/>
<path fill="#1E91C3" opacity="1.000000" stroke="none" 
	d="
M161.309586,268.704193 
	C161.484955,269.035034 161.388580,269.379944 160.990692,269.690857 
	C160.805405,269.344025 160.921616,269.031128 161.309586,268.704193 
z"/>
<path fill="#1E91C3" opacity="1.000000" stroke="none" 
	d="
M160.357971,269.721527 
	C160.542496,270.062561 160.438065,270.413605 160.027969,270.748474 
	C159.837875,270.398712 159.953430,270.065125 160.357971,269.721527 
z"/>
<path fill="#1E91C3" opacity="1.000000" stroke="none" 
	d="
M154.646927,275.973053 
	C154.757843,276.319366 154.540436,276.697845 153.974808,277.090729 
	C153.857254,276.738464 154.087936,276.371857 154.646927,275.973053 
z"/>
<path fill="#1E91C3" opacity="1.000000" stroke="none" 
	d="
M155.641266,274.914734 
	C155.803223,275.255219 155.662888,275.591614 155.231140,275.948914 
	C155.072800,275.616791 155.205872,275.263672 155.641266,274.914734 
z"/>
<path fill="#1E91C3" opacity="1.000000" stroke="none" 
	d="
M156.585892,273.863892 
	C156.764114,274.207428 156.632477,274.551697 156.207916,274.921997 
	C156.035324,274.586884 156.155670,274.225769 156.585892,273.863892 
z"/>
<path fill="#1E91C3" opacity="1.000000" stroke="none" 
	d="
M157.533630,272.815979 
	C157.711563,273.158569 157.578827,273.506287 157.149551,273.878601 
	C156.976318,273.542480 157.099625,273.181793 157.533630,272.815979 
z"/>
<path fill="#1E91C3" opacity="1.000000" stroke="none" 
	d="
M158.477692,271.776428 
	C158.656860,272.119446 158.528595,272.468231 158.100128,272.834656 
	C157.923355,272.495605 158.046799,272.138947 158.477692,271.776428 
z"/>
</svg>